<svg width="182" height="40" viewBox="0 0 182 55" fill="none" xmlns="http://www.w3.org/2000/svg">
<g filter="url(#filter0_d_1_2)">
<path d="M20.5909 1.09091H24.8182V26.0455C24.8182 28.2727 24.4091 30.1648 23.5909 31.7216C22.7727 33.2784 21.6193 34.4602 20.1307 35.267C18.642 36.0739 16.8864 36.4773 14.8636 36.4773C12.9545 36.4773 11.2557 36.1307 9.76705 35.4375C8.27841 34.733 7.10795 33.733 6.25568 32.4375C5.40341 31.142 4.97727 29.6023 4.97727 27.8182H9.13636C9.13636 28.8068 9.38068 29.6705 9.86932 30.4091C10.3693 31.1364 11.0511 31.7045 11.9148 32.1136C12.7784 32.5227 13.7614 32.7273 14.8636 32.7273C16.0795 32.7273 17.1136 32.4716 17.9659 31.9602C18.8182 31.4489 19.4659 30.6989 19.9091 29.7102C20.3636 28.7102 20.5909 27.4886 20.5909 26.0455V1.09091ZM43.3807 36.5455C41.017 36.5455 38.9432 35.983 37.1591 34.858C35.3864 33.733 34 32.1591 33 30.1364C32.0114 28.1136 31.517 25.75 31.517 23.0455C31.517 20.3182 32.0114 17.9375 33 15.9034C34 13.8693 35.3864 12.2898 37.1591 11.1648C38.9432 10.0398 41.017 9.47727 43.3807 9.47727C45.7443 9.47727 47.8125 10.0398 49.5852 11.1648C51.3693 12.2898 52.7557 13.8693 53.7443 15.9034C54.7443 17.9375 55.2443 20.3182 55.2443 23.0455C55.2443 25.75 54.7443 28.1136 53.7443 30.1364C52.7557 32.1591 51.3693 33.733 49.5852 34.858C47.8125 35.983 45.7443 36.5455 43.3807 36.5455ZM43.3807 32.9318C45.1761 32.9318 46.6534 32.4716 47.8125 31.5511C48.9716 30.6307 49.8295 29.4205 50.3864 27.9205C50.9432 26.4205 51.2216 24.7955 51.2216 23.0455C51.2216 21.2955 50.9432 19.6648 50.3864 18.1534C49.8295 16.642 48.9716 15.4205 47.8125 14.4886C46.6534 13.5568 45.1761 13.0909 43.3807 13.0909C41.5852 13.0909 40.108 13.5568 38.9489 14.4886C37.7898 15.4205 36.9318 16.642 36.375 18.1534C35.8182 19.6648 35.5398 21.2955 35.5398 23.0455C35.5398 24.7955 35.8182 26.4205 36.375 27.9205C36.9318 29.4205 37.7898 30.6307 38.9489 31.5511C40.108 32.4716 41.5852 32.9318 43.3807 32.9318ZM61.3849 36V9.81818H65.2713V13.7727H65.544C66.0213 12.4773 66.8849 11.4261 68.1349 10.6193C69.3849 9.8125 70.794 9.40909 72.3622 9.40909C72.6577 9.40909 73.027 9.41477 73.4702 9.42614C73.9134 9.4375 74.2486 9.45455 74.4759 9.47727V13.5682C74.3395 13.5341 74.027 13.483 73.5384 13.4148C73.0611 13.3352 72.5554 13.2955 72.0213 13.2955C70.7486 13.2955 69.6122 13.5625 68.6122 14.0966C67.6236 14.6193 66.8395 15.3466 66.2599 16.2784C65.6918 17.1989 65.4077 18.25 65.4077 19.4318V36H61.3849ZM89.0156 46.3636C87.0724 46.3636 85.402 46.1136 84.0043 45.6136C82.6065 45.125 81.4418 44.4773 80.5099 43.6705C79.5895 42.875 78.8565 42.0227 78.3111 41.1136L81.5156 38.8636C81.8793 39.3409 82.3395 39.8864 82.8963 40.5C83.4531 41.125 84.2145 41.6648 85.1804 42.1193C86.1577 42.5852 87.4361 42.8182 89.0156 42.8182C91.1293 42.8182 92.8736 42.3068 94.2486 41.2841C95.6236 40.2614 96.3111 38.6591 96.3111 36.4773V31.1591H95.9702C95.6747 31.6364 95.2543 32.2273 94.7088 32.9318C94.1747 33.625 93.402 34.2443 92.3906 34.7898C91.3906 35.3239 90.0384 35.5909 88.3338 35.5909C86.2202 35.5909 84.3224 35.0909 82.6406 34.0909C80.9702 33.0909 79.6463 31.6364 78.669 29.7273C77.7031 27.8182 77.2202 25.5 77.2202 22.7727C77.2202 20.0909 77.6918 17.7557 78.6349 15.767C79.5781 13.767 80.8906 12.2216 82.5724 11.1307C84.2543 10.0284 86.1974 9.47727 88.402 9.47727C90.1065 9.47727 91.4588 9.76136 92.4588 10.3295C93.4702 10.8864 94.2429 11.5227 94.777 12.2386C95.3224 12.9432 95.7429 13.5227 96.0384 13.9773H96.4474V9.81818H100.334V36.75C100.334 39 99.8224 40.8295 98.7997 42.2386C97.7884 43.6591 96.4247 44.6989 94.7088 45.358C93.0043 46.0284 91.1065 46.3636 89.0156 46.3636ZM88.8793 31.9773C90.4929 31.9773 91.8565 31.608 92.9702 30.8693C94.0838 30.1307 94.9304 29.0682 95.5099 27.6818C96.0895 26.2955 96.3793 24.6364 96.3793 22.7045C96.3793 20.8182 96.0952 19.1534 95.527 17.7102C94.9588 16.267 94.1179 15.1364 93.0043 14.3182C91.8906 13.5 90.5156 13.0909 88.8793 13.0909C87.1747 13.0909 85.7543 13.5227 84.6179 14.3864C83.4929 15.25 82.6463 16.4091 82.0781 17.8636C81.5213 19.3182 81.2429 20.9318 81.2429 22.7045C81.2429 24.5227 81.527 26.1307 82.0952 27.5284C82.6747 28.9148 83.527 30.0057 84.652 30.8011C85.7884 31.5852 87.1974 31.9773 88.8793 31.9773ZM118.675 36.5455C116.152 36.5455 113.976 35.9886 112.146 34.875C110.328 33.75 108.925 32.1818 107.936 30.1705C106.959 28.1477 106.47 25.7955 106.47 23.1136C106.47 20.4318 106.959 18.0682 107.936 16.0227C108.925 13.9659 110.3 12.3636 112.061 11.2159C113.834 10.0568 115.902 9.47727 118.266 9.47727C119.629 9.47727 120.976 9.70455 122.305 10.1591C123.635 10.6136 124.845 11.3523 125.936 12.375C127.027 13.3864 127.896 14.7273 128.544 16.3977C129.192 18.0682 129.516 20.125 129.516 22.5682V24.2727H109.334V20.7955H125.425C125.425 19.3182 125.129 18 124.538 16.8409C123.959 15.6818 123.129 14.767 122.05 14.0966C120.982 13.4261 119.72 13.0909 118.266 13.0909C116.663 13.0909 115.277 13.4886 114.107 14.2841C112.947 15.0682 112.055 16.0909 111.43 17.3523C110.805 18.6136 110.493 19.9659 110.493 21.4091V23.7273C110.493 25.7045 110.834 27.3807 111.516 28.7557C112.209 30.1193 113.169 31.1591 114.396 31.875C115.624 32.5795 117.05 32.9318 118.675 32.9318C119.732 32.9318 120.686 32.7841 121.538 32.4886C122.402 32.1818 123.146 31.7273 123.771 31.125C124.396 30.5114 124.879 29.75 125.22 28.8409L129.107 29.9318C128.697 31.25 128.01 32.4091 127.044 33.4091C126.078 34.3977 124.885 35.1705 123.464 35.7273C122.044 36.2727 120.447 36.5455 118.675 36.5455ZM177.771 12H173.544C173.294 10.7841 172.857 9.71591 172.232 8.79545C171.618 7.875 170.868 7.10227 169.982 6.47727C169.107 5.84091 168.135 5.36364 167.067 5.04545C165.999 4.72727 164.885 4.56818 163.726 4.56818C161.612 4.56818 159.697 5.10227 157.982 6.17045C156.277 7.23864 154.919 8.8125 153.908 10.892C152.908 12.9716 152.408 15.5227 152.408 18.5455C152.408 21.5682 152.908 24.1193 153.908 26.1989C154.919 28.2784 156.277 29.8523 157.982 30.9205C159.697 31.9886 161.612 32.5227 163.726 32.5227C164.885 32.5227 165.999 32.3636 167.067 32.0455C168.135 31.7273 169.107 31.2557 169.982 30.6307C170.868 29.9943 171.618 29.2159 172.232 28.2955C172.857 27.3636 173.294 26.2955 173.544 25.0909H177.771C177.453 26.875 176.874 28.4716 176.033 29.8807C175.192 31.2898 174.146 32.4886 172.896 33.4773C171.646 34.4545 170.243 35.1989 168.686 35.7102C167.141 36.2216 165.487 36.4773 163.726 36.4773C160.749 36.4773 158.101 35.75 155.783 34.2955C153.464 32.8409 151.641 30.7727 150.311 28.0909C148.982 25.4091 148.317 22.2273 148.317 18.5455C148.317 14.8636 148.982 11.6818 150.311 9C151.641 6.31818 153.464 4.25 155.783 2.79545C158.101 1.34091 160.749 0.613635 163.726 0.613635C165.487 0.613635 167.141 0.869317 168.686 1.38068C170.243 1.89205 171.646 2.64205 172.896 3.63068C174.146 4.60795 175.192 5.80114 176.033 7.21023C176.874 8.60795 177.453 10.2045 177.771 12Z" fill="#723BAA"/>
<path d="M20.5909 1.09091H24.8182V26.0455C24.8182 28.2727 24.4091 30.1648 23.5909 31.7216C22.7727 33.2784 21.6193 34.4602 20.1307 35.267C18.642 36.0739 16.8864 36.4773 14.8636 36.4773C12.9545 36.4773 11.2557 36.1307 9.76705 35.4375C8.27841 34.733 7.10795 33.733 6.25568 32.4375C5.40341 31.142 4.97727 29.6023 4.97727 27.8182H9.13636C9.13636 28.8068 9.38068 29.6705 9.86932 30.4091C10.3693 31.1364 11.0511 31.7045 11.9148 32.1136C12.7784 32.5227 13.7614 32.7273 14.8636 32.7273C16.0795 32.7273 17.1136 32.4716 17.9659 31.9602C18.8182 31.4489 19.4659 30.6989 19.9091 29.7102C20.3636 28.7102 20.5909 27.4886 20.5909 26.0455V1.09091ZM43.3807 36.5455C41.017 36.5455 38.9432 35.983 37.1591 34.858C35.3864 33.733 34 32.1591 33 30.1364C32.0114 28.1136 31.517 25.75 31.517 23.0455C31.517 20.3182 32.0114 17.9375 33 15.9034C34 13.8693 35.3864 12.2898 37.1591 11.1648C38.9432 10.0398 41.017 9.47727 43.3807 9.47727C45.7443 9.47727 47.8125 10.0398 49.5852 11.1648C51.3693 12.2898 52.7557 13.8693 53.7443 15.9034C54.7443 17.9375 55.2443 20.3182 55.2443 23.0455C55.2443 25.75 54.7443 28.1136 53.7443 30.1364C52.7557 32.1591 51.3693 33.733 49.5852 34.858C47.8125 35.983 45.7443 36.5455 43.3807 36.5455ZM43.3807 32.9318C45.1761 32.9318 46.6534 32.4716 47.8125 31.5511C48.9716 30.6307 49.8295 29.4205 50.3864 27.9205C50.9432 26.4205 51.2216 24.7955 51.2216 23.0455C51.2216 21.2955 50.9432 19.6648 50.3864 18.1534C49.8295 16.642 48.9716 15.4205 47.8125 14.4886C46.6534 13.5568 45.1761 13.0909 43.3807 13.0909C41.5852 13.0909 40.108 13.5568 38.9489 14.4886C37.7898 15.4205 36.9318 16.642 36.375 18.1534C35.8182 19.6648 35.5398 21.2955 35.5398 23.0455C35.5398 24.7955 35.8182 26.4205 36.375 27.9205C36.9318 29.4205 37.7898 30.6307 38.9489 31.5511C40.108 32.4716 41.5852 32.9318 43.3807 32.9318ZM61.3849 36V9.81818H65.2713V13.7727H65.544C66.0213 12.4773 66.8849 11.4261 68.1349 10.6193C69.3849 9.8125 70.794 9.40909 72.3622 9.40909C72.6577 9.40909 73.027 9.41477 73.4702 9.42614C73.9134 9.4375 74.2486 9.45455 74.4759 9.47727V13.5682C74.3395 13.5341 74.027 13.483 73.5384 13.4148C73.0611 13.3352 72.5554 13.2955 72.0213 13.2955C70.7486 13.2955 69.6122 13.5625 68.6122 14.0966C67.6236 14.6193 66.8395 15.3466 66.2599 16.2784C65.6918 17.1989 65.4077 18.25 65.4077 19.4318V36H61.3849ZM89.0156 46.3636C87.0724 46.3636 85.402 46.1136 84.0043 45.6136C82.6065 45.125 81.4418 44.4773 80.5099 43.6705C79.5895 42.875 78.8565 42.0227 78.3111 41.1136L81.5156 38.8636C81.8793 39.3409 82.3395 39.8864 82.8963 40.5C83.4531 41.125 84.2145 41.6648 85.1804 42.1193C86.1577 42.5852 87.4361 42.8182 89.0156 42.8182C91.1293 42.8182 92.8736 42.3068 94.2486 41.2841C95.6236 40.2614 96.3111 38.6591 96.3111 36.4773V31.1591H95.9702C95.6747 31.6364 95.2543 32.2273 94.7088 32.9318C94.1747 33.625 93.402 34.2443 92.3906 34.7898C91.3906 35.3239 90.0384 35.5909 88.3338 35.5909C86.2202 35.5909 84.3224 35.0909 82.6406 34.0909C80.9702 33.0909 79.6463 31.6364 78.669 29.7273C77.7031 27.8182 77.2202 25.5 77.2202 22.7727C77.2202 20.0909 77.6918 17.7557 78.6349 15.767C79.5781 13.767 80.8906 12.2216 82.5724 11.1307C84.2543 10.0284 86.1974 9.47727 88.402 9.47727C90.1065 9.47727 91.4588 9.76136 92.4588 10.3295C93.4702 10.8864 94.2429 11.5227 94.777 12.2386C95.3224 12.9432 95.7429 13.5227 96.0384 13.9773H96.4474V9.81818H100.334V36.75C100.334 39 99.8224 40.8295 98.7997 42.2386C97.7884 43.6591 96.4247 44.6989 94.7088 45.358C93.0043 46.0284 91.1065 46.3636 89.0156 46.3636ZM88.8793 31.9773C90.4929 31.9773 91.8565 31.608 92.9702 30.8693C94.0838 30.1307 94.9304 29.0682 95.5099 27.6818C96.0895 26.2955 96.3793 24.6364 96.3793 22.7045C96.3793 20.8182 96.0952 19.1534 95.527 17.7102C94.9588 16.267 94.1179 15.1364 93.0043 14.3182C91.8906 13.5 90.5156 13.0909 88.8793 13.0909C87.1747 13.0909 85.7543 13.5227 84.6179 14.3864C83.4929 15.25 82.6463 16.4091 82.0781 17.8636C81.5213 19.3182 81.2429 20.9318 81.2429 22.7045C81.2429 24.5227 81.527 26.1307 82.0952 27.5284C82.6747 28.9148 83.527 30.0057 84.652 30.8011C85.7884 31.5852 87.1974 31.9773 88.8793 31.9773ZM118.675 36.5455C116.152 36.5455 113.976 35.9886 112.146 34.875C110.328 33.75 108.925 32.1818 107.936 30.1705C106.959 28.1477 106.47 25.7955 106.47 23.1136C106.47 20.4318 106.959 18.0682 107.936 16.0227C108.925 13.9659 110.3 12.3636 112.061 11.2159C113.834 10.0568 115.902 9.47727 118.266 9.47727C119.629 9.47727 120.976 9.70455 122.305 10.1591C123.635 10.6136 124.845 11.3523 125.936 12.375C127.027 13.3864 127.896 14.7273 128.544 16.3977C129.192 18.0682 129.516 20.125 129.516 22.5682V24.2727H109.334V20.7955H125.425C125.425 19.3182 125.129 18 124.538 16.8409C123.959 15.6818 123.129 14.767 122.05 14.0966C120.982 13.4261 119.72 13.0909 118.266 13.0909C116.663 13.0909 115.277 13.4886 114.107 14.2841C112.947 15.0682 112.055 16.0909 111.43 17.3523C110.805 18.6136 110.493 19.9659 110.493 21.4091V23.7273C110.493 25.7045 110.834 27.3807 111.516 28.7557C112.209 30.1193 113.169 31.1591 114.396 31.875C115.624 32.5795 117.05 32.9318 118.675 32.9318C119.732 32.9318 120.686 32.7841 121.538 32.4886C122.402 32.1818 123.146 31.7273 123.771 31.125C124.396 30.5114 124.879 29.75 125.22 28.8409L129.107 29.9318C128.697 31.25 128.01 32.4091 127.044 33.4091C126.078 34.3977 124.885 35.1705 123.464 35.7273C122.044 36.2727 120.447 36.5455 118.675 36.5455ZM177.771 12H173.544C173.294 10.7841 172.857 9.71591 172.232 8.79545C171.618 7.875 170.868 7.10227 169.982 6.47727C169.107 5.84091 168.135 5.36364 167.067 5.04545C165.999 4.72727 164.885 4.56818 163.726 4.56818C161.612 4.56818 159.697 5.10227 157.982 6.17045C156.277 7.23864 154.919 8.8125 153.908 10.892C152.908 12.9716 152.408 15.5227 152.408 18.5455C152.408 21.5682 152.908 24.1193 153.908 26.1989C154.919 28.2784 156.277 29.8523 157.982 30.9205C159.697 31.9886 161.612 32.5227 163.726 32.5227C164.885 32.5227 165.999 32.3636 167.067 32.0455C168.135 31.7273 169.107 31.2557 169.982 30.6307C170.868 29.9943 171.618 29.2159 172.232 28.2955C172.857 27.3636 173.294 26.2955 173.544 25.0909H177.771C177.453 26.875 176.874 28.4716 176.033 29.8807C175.192 31.2898 174.146 32.4886 172.896 33.4773C171.646 34.4545 170.243 35.1989 168.686 35.7102C167.141 36.2216 165.487 36.4773 163.726 36.4773C160.749 36.4773 158.101 35.75 155.783 34.2955C153.464 32.8409 151.641 30.7727 150.311 28.0909C148.982 25.4091 148.317 22.2273 148.317 18.5455C148.317 14.8636 148.982 11.6818 150.311 9C151.641 6.31818 153.464 4.25 155.783 2.79545C158.101 1.34091 160.749 0.613635 163.726 0.613635C165.487 0.613635 167.141 0.869317 168.686 1.38068C170.243 1.89205 171.646 2.64205 172.896 3.63068C174.146 4.60795 175.192 5.80114 176.033 7.21023C176.874 8.60795 177.453 10.2045 177.771 12Z" fill="black" fill-opacity="0.2"/>
</g>
<defs>
<filter id="filter0_d_1_2" x="0.97728" y="0.613632" width="180.794" height="53.75" filterUnits="userSpaceOnUse" color-interpolation-filters="sRGB">
<feFlood flood-opacity="0" result="BackgroundImageFix"/>
<feColorMatrix in="SourceAlpha" type="matrix" values="0 0 0 0 0 0 0 0 0 0 0 0 0 0 0 0 0 0 127 0" result="hardAlpha"/>
<feOffset dy="4"/>
<feGaussianBlur stdDeviation="2"/>
<feComposite in2="hardAlpha" operator="out"/>
<feColorMatrix type="matrix" values="0 0 0 0 0 0 0 0 0 0 0 0 0 0 0 0 0 0 0.25 0"/>
<feBlend mode="normal" in2="BackgroundImageFix" result="effect1_dropShadow_1_2"/>
<feBlend mode="normal" in="SourceGraphic" in2="effect1_dropShadow_1_2" result="shape"/>
</filter>
</defs>
</svg>
